# xmcd
# 
# Track frame offsets:
#     182
#     1442
#     15670
#     34435
#     72432
#     107315
#     131092
#     146560
#     161752
#     185235
#     197792
#     204400
# 
# Disc length: 3222
# 
# Revision: 8
# Processed by: cddbd v1.5.2PL0 Copyright (c) Steve Scherf et al.
# Submitted via: fre:ac v1.0.31
# 
DISCID=af0c940c
DTITLE=Bill Engvall - Here's Your Sign
DYEAR=1996
DGENRE=Comedy
TTITLE0=Introduction
TTITLE1=I Love Golf
TTITLE2=Going To The Fair
TTITLE3=We've Got A Full House
TTITLE4=Here's Your Sign
TTITLE5=Nobody Disciplines Their Kids Anymore
TTITLE6=Things Have Changed
TTITLE7=Caught Big Time
TTITLE8=I.G. Joe
TTITLE9=Baby Barf And The Turkey Hunt
TTITLE10=Tell Me What I'm Thinking
TTITLE11=Love Magic
EXTD=YEAR: 1996
EXTT0=
EXTT1=
EXTT2=
EXTT3=
EXTT4=
EXTT5=
EXTT6=
EXTT7=
EXTT8=
EXTT9=
EXTT10=
EXTT11=
PLAYORDER=
